<svg xmlns="http://www.w3.org/2000/svg" xmlns:xlink="http://www.w3.org/1999/xlink" width="1200" height="1200" viewBox="0 0 1200 1200"><g transform="translate(600 600) scale(0.69 0.69) rotate(-180) translate(-600 -600)" style="fill:#4D4D4D"><svg fill="#4D4D4D" xmlns="http://www.w3.org/2000/svg" xmlns:xlink="http://www.w3.org/1999/xlink" version="1.0" x="0px" y="0px" viewBox="0 0 100 100" enable-background="new 0 0 100 100" xml:space="preserve"><path d="M18.6681938,51.084507H6.4425578c0,24.1150169,19.5503731,43.665493,43.6644821,43.665493V83.3742828  C32.6668739,82.9108047,18.6681938,68.6380692,18.6681938,51.084507z"></path><path d="M31.2449226,51.084507H23.908371c0,14.4670143,11.7296371,26.1996803,26.1986694,26.1996803v-6.8237915  C39.6425362,70.1812897,31.2449226,61.6170692,31.2449226,51.084507z"></path><rect x="38.3388519" y="30.2651787" transform="matrix(0.70713 -0.7070836 0.7070836 0.70713 -10.7830753 54.2329369)" width="43.475193" height="19.7364349"></rect><rect x="66.1986923" y="55.2788162" transform="matrix(0.7071042 -0.7071094 0.7071094 0.7071042 -28.5197868 74.8292923)" width="19.7357922" height="33.1241608"></rect><rect x="11.4233322" y="13.8919315" transform="matrix(0.707122 0.7070915 -0.7070915 0.707122 24.996912 -12.8294239)" width="33.1241608" height="19.7364349"></rect></svg></g></svg>